<?xml version="1.0" encoding="utf-8"?>
<!-- Generator: Adobe Illustrator 23.0.3, SVG Export Plug-In . SVG Version: 6.00 Build 0)  -->
<svg version="1.1" id="Layer_1" xmlns="http://www.w3.org/2000/svg" xmlns:xlink="http://www.w3.org/1999/xlink" x="0px" y="0px"
	 width="150px" height="64px" viewBox="0 0 150 64" style="enable-background:new 0 0 150 64;" xml:space="preserve">
<style type="text/css">
	.st0{fill:#026938;}
</style>
<g>
	<g>
		<g>
			<path class="st0" d="M33.4,35.8c-0.3,0.1-0.4,0.2-0.4,0.5c0,0.1,0,0.2,0,0.3c0.3,1.2,0.6,2.4,0.9,3.6c0.3-1.4,0.5-2.7,0.8-4.1
				c-0.1-0.6-0.3-0.8-0.8-0.5c0-0.4,0-0.7,0-1.1c1.1-0.4,2.2-0.9,3.3-1.3c0,0.4,0,0.7,0,1.1c-0.1,0-0.1,0.1-0.2,0.1
				c-0.4,0.1-0.5,0.2-0.5,0.5c0,0.1,0,0.2,0,0.3c0.3,1.2,0.6,2.5,0.8,3.7c0.3-1.4,0.6-2.9,0.9-4.3c0-0.1,0-0.2,0-0.3
				c0-0.3-0.2-0.2-0.6-0.1c0-0.4,0-0.7,0-1.1c0.9-0.3,1.7-0.6,2.6-0.9c0,0.4,0,0.7,0,1.1c-0.4,0.1-0.6,0.4-0.8,1
				c-0.5,2.2-0.9,4.4-1.4,6.5c-0.7,0.3-1.4,0.5-2.1,0.8c-0.2-1-0.4-2-0.7-3c-0.2,1.2-0.5,2.3-0.7,3.5c-0.7,0.3-1.4,0.6-2.1,0.9
				c-0.5-1.8-0.9-3.5-1.4-5.2c-0.2-0.6-0.4-0.8-0.8-0.6c0-0.4,0-0.8,0-1.1c1-0.5,2-0.9,3.1-1.3C33.4,35.1,33.4,35.4,33.4,35.8z"/>
		</g>
		<g>
			<path class="st0" d="M45.1,37.5c0.1,0,0.2-0.1,0.3-0.1c0.4-0.1,0.6-0.2,0.6-0.4c0-0.1,0-0.2,0-0.3c-0.1-0.3-0.2-0.5-0.2-0.8
				c-0.6,0.2-1.2,0.3-1.8,0.5c-0.1,0.3-0.1,0.5-0.2,0.8c-0.1,0.2-0.1,0.3-0.1,0.5c0,0.1,0.2,0.2,0.5,0.1c0.1,0,0.2-0.1,0.3-0.1
				c0,0.4,0,0.7,0,1.1c-1,0.3-2,0.6-3,0.9c0-0.4,0-0.7,0-1.1c0.1,0,0.2-0.1,0.3-0.1c0.4-0.1,0.6-0.5,0.7-1c0.6-2.2,1.2-4.4,1.8-6.5
				c0.8-0.2,1.7-0.5,2.5-0.7c0.5,1.8,1.1,3.7,1.6,5.6c0.2,0.6,0.2,0.8,0.7,0.7c0.1,0,0.2-0.1,0.4-0.1c0,0.4,0,0.7,0,1.1
				c-1.4,0.3-2.8,0.7-4.2,1.1C45.1,38.2,45.1,37.8,45.1,37.5z M44.7,32.6c-0.2,0.9-0.4,1.7-0.6,2.6c0.4-0.1,0.8-0.2,1.2-0.3
				C45.2,34.1,44.9,33.4,44.7,32.6z"/>
		</g>
		<g>
			<path class="st0" d="M52.2,30.7c0-0.6,0-0.7-0.6-0.6c-0.1,0-0.2,0.1-0.4,0.1c0-0.4,0-0.7,0-1.1c1.6-0.4,3.2-0.7,4.8-1
				c1.7-0.3,2.5,0.2,2.5,1.6c0,0.9-0.5,1.6-1.5,2c1.1,0,1.2,0.6,1.2,2.1c0,0.5,0.1,0.7,0.3,0.7c0.2,0,0.3-0.3,0.3-0.9
				c0-0.1,0-0.2,0-0.3c0.2,0,0.5-0.1,0.7-0.1c0,0.1,0,0.2,0,0.3c0,1.5-0.5,2.2-1.7,2.4c-1.3,0.2-1.8-0.3-1.8-1.6c0-0.2,0-0.4,0-0.7
				c0-1-0.1-1.2-1-1.1c-0.2,0-0.4,0.1-0.6,0.1c0,0.6,0,1.2,0,1.8c0,0.6,0,0.7,0.6,0.6c0.1,0,0.3,0,0.4-0.1c0,0.4,0,0.7,0,1.1
				c-1.4,0.3-2.8,0.5-4.2,0.8c0-0.4,0-0.7,0-1.1c0.1,0,0.2-0.1,0.4-0.1c0.5-0.1,0.6-0.2,0.6-0.8C52.2,33.6,52.2,32.1,52.2,30.7z
				 M55.1,31.6c0.8-0.1,1.2-0.4,1.2-1.2c0-0.8-0.3-1-1.1-0.9c-0.2,0-0.5,0.1-0.7,0.1c0,0.7,0,1.4,0,2.1
				C54.7,31.7,54.9,31.6,55.1,31.6z"/>
		</g>
		<g>
			<path class="st0" d="M69.3,29.6c-0.4,0-0.7,0-1.1,0.1c-0.1-0.7-0.3-1.1-0.5-1.4c-0.3-0.4-0.8-0.4-1.4-0.3c-0.1,0-0.1,0-0.2,0
				c-0.3,0-0.6,0.1-0.9,0.1c0,0.7,0,1.5,0,2.2c0.1,0,0.2,0,0.3,0c0.6-0.1,0.9-0.4,0.9-1.3c0,0,0,0,0-0.1c0.3,0,0.6,0,0.9-0.1
				c0,1.2,0,2.4,0,3.6c-0.3,0-0.6,0-0.9,0.1c0-1-0.1-1.3-0.8-1.3c-0.1,0-0.2,0-0.3,0c0,0.8,0,1.6,0,2.5c0.3,0,0.7-0.1,1-0.1
				c0.1,0,0.1,0,0.2,0c0.7-0.1,1.2-0.1,1.4-0.5c0.2-0.4,0.3-1,0.4-1.7c0.4,0,0.8,0,1.2-0.1c0,1.1,0,2.2,0,3.3
				c-2.5,0.1-5,0.3-7.4,0.6c0-0.4,0-0.7,0-1.1c0.1,0,0.2,0,0.4,0c0.6-0.1,0.6-0.2,0.6-0.7c0,0,0,0,0-0.1c0-1.4,0-2.9,0-4.3
				c0-0.6,0-0.7-0.6-0.6c-0.1,0-0.2,0-0.3,0c0-0.4,0-0.7,0-1.1c2.5-0.3,4.9-0.5,7.4-0.6C69.3,27.6,69.3,28.6,69.3,29.6z"/>
		</g>
		<g>
			<path class="st0" d="M75.9,27.6c0,0-0.1,0-0.1,0c-0.5,0-0.5,0.1-0.5,0.7c0,0.5,0,1,0,1.4c0.7,0,1.3,0,2,0c0-0.5,0-1,0-1.4
				c0-0.5,0-0.7-0.5-0.7c0,0-0.1,0-0.1,0c0-0.4,0-0.7,0-1.1c1.3,0,2.6,0.1,3.9,0.1c0,0.4,0,0.7,0,1.1c-0.1,0-0.2,0-0.4,0
				c-0.5,0-0.6,0.1-0.6,0.7c0,1.4,0,2.9,0,4.3c0,0.6,0,0.7,0.6,0.7c0.1,0,0.2,0,0.4,0c0,0.4,0,0.7,0,1.1c-1.3-0.1-2.6-0.1-3.9-0.1
				c0-0.4,0-0.7,0-1.1c0,0,0.1,0,0.1,0c0.5,0,0.5-0.1,0.5-0.7c0-0.6,0-1.2,0-1.8c-0.7,0-1.3,0-2,0c0,0.6,0,1.2,0,1.8
				c0,0.5,0,0.7,0.5,0.7c0,0,0.1,0,0.1,0c0,0.4,0,0.7,0,1.1c-1.3,0-2.6,0-3.9,0c0-0.4,0-0.7,0-1.1c0.1,0,0.2,0,0.4,0
				c0.6,0,0.6-0.2,0.6-0.7c0-1.4,0-2.9,0-4.3c0-0.6,0-0.7-0.6-0.7c-0.1,0-0.2,0-0.4,0c0-0.4,0-0.8,0-1.1c1.3,0,2.6-0.1,3.9,0
				C75.9,26.9,75.9,27.2,75.9,27.6z"/>
		</g>
		<g>
			<path class="st0" d="M86.8,26.9c2.6,0.3,4.1,2.1,4.1,4.7c0,2.6-1.5,4-4.1,3.7c-2.6-0.3-4.1-2-4.1-4.6
				C82.8,28.1,84.3,26.6,86.8,26.9z M85.5,30.9c0,2,0.4,3,1.4,3.2c1,0.1,1.4-0.8,1.4-2.8c0-2-0.4-3.1-1.4-3.2
				C85.9,28,85.5,28.9,85.5,30.9z"/>
		</g>
		<g>
			<path class="st0" d="M97.3,35.7c1,0.2,1.3-0.2,1.3-1.3c0-1.2,0-2.4,0-3.6c0-0.6,0-0.7-0.6-0.8c-0.1,0-0.2,0-0.4-0.1
				c0-0.4,0-0.7,0-1.1c1.1,0.2,2.1,0.5,3.2,0.7c0,0.4,0,0.7,0,1.1c-0.1,0-0.2-0.1-0.3-0.1c-0.5-0.1-0.6,0-0.6,0.5c0,1.3,0,2.6,0,3.8
				c0,1.7-1.1,2.3-3.2,1.9c-1.9-0.4-3-1.5-3-3c0-1.3,0-2.6,0-3.9c0-0.6-0.1-0.7-0.6-0.8c-0.1,0-0.2,0-0.4-0.1c0-0.4,0-0.7,0-1.1
				c1.4,0.2,2.8,0.5,4.2,0.8c0,0.4,0,0.7,0,1.1c-0.1,0-0.3-0.1-0.4-0.1c-0.5-0.1-0.6,0-0.6,0.6c0,1.2,0,2.3,0,3.5
				C96.2,34.9,96.4,35.5,97.3,35.7z"/>
		</g>
		<g>
			<path class="st0" d="M104.3,35.4c0.3,1.3,1.1,2.3,2.1,2.6c0.6,0.2,1,0,1-0.5c0-0.7-0.7-1-1.8-1.7c-0.9-0.5-1.4-0.9-1.7-1.2
				c-0.6-0.6-0.8-1.3-0.8-2c0-1.6,1.1-2.4,2.8-1.9c0.8,0.2,1.5,0.6,2.3,1.3c0.1-0.1,0.1-0.2,0.2-0.3c0.3,0.1,0.6,0.2,1,0.3
				c0,0.9,0,1.8,0,2.8c-0.4-0.1-0.8-0.2-1.1-0.4c-0.2-1.2-0.8-1.9-1.9-2.2c-0.6-0.2-1.1,0.1-1.1,0.5c0,0.6,0.6,0.8,1.6,1.4
				c1.9,1.1,2.8,2.1,2.8,3.6c0,1.6-1.1,2.3-2.9,1.7c-0.8-0.2-1.5-0.7-2.3-1.3c-0.1,0.1-0.2,0.2-0.3,0.4c-0.3-0.1-0.6-0.2-0.9-0.3
				c0-1,0-2,0-3C103.7,35.2,104,35.3,104.3,35.4z"/>
		</g>
		<g>
			<path class="st0" d="M119,38.5c-0.3-0.1-0.7-0.3-1-0.4c-0.1-0.7-0.2-1.2-0.5-1.6c-0.3-0.5-0.8-0.7-1.3-1c-0.1,0-0.1-0.1-0.2-0.1
				c-0.3-0.1-0.6-0.2-0.9-0.3c0,0.7,0,1.5,0,2.2c0.1,0,0.2,0.1,0.3,0.1c0.6,0.2,0.8,0,0.8-0.9c0,0,0,0,0-0.1
				c0.3,0.1,0.6,0.2,0.8,0.3c0,1.2,0,2.4,0,3.6c-0.3-0.1-0.6-0.2-0.8-0.3c0-1-0.1-1.4-0.8-1.6c-0.1,0-0.2-0.1-0.3-0.1
				c0,0.8,0,1.6,0,2.5c0.3,0.1,0.7,0.3,1,0.4c0.1,0,0.1,0.1,0.2,0.1c0.7,0.3,1.1,0.4,1.3,0.1c0.2-0.3,0.3-0.8,0.4-1.6
				c0.4,0.2,0.7,0.3,1.1,0.5c0,1.1,0,2.2,0,3.3c-2.3-1-4.7-1.9-7.1-2.8c0-0.4,0-0.7,0-1.1c0.1,0,0.2,0.1,0.3,0.1
				c0.5,0.2,0.5,0.1,0.5-0.4c0,0,0,0,0-0.1c0-1.4,0-2.9,0-4.3c0-0.6,0-0.7-0.6-0.9c-0.1,0-0.2-0.1-0.3-0.1c0-0.4,0-0.7,0-1.1
				c2.4,0.8,4.7,1.7,7,2.7C119,36.5,119,37.5,119,38.5z"/>
		</g>
	</g>
	<g>
		<path class="st0" d="M10,16.2c0-2.3,0.8-4,2.1-4.1c2.2-0.2,3.8,3,4.1,9.3c0.6-0.1,1.1-0.3,1.7-0.4V8.7l-1.5,0
			c-0.2,0.7-0.4,1.4-0.6,2.1c-1-1.8-2.4-2.8-4-2.8C9,8,6.8,12.7,7,19.2c0.1,3.4,0.7,5.9,2,8.1c0.9,1.5,2.4,2.8,4.2,4.7
			c1.5,1.6,2.2,3.3,2.2,5.6c0,2.4-0.8,4.6-2.1,5.4c-2.1,1.5-3.2-2-3.6-10.7c-0.6,0.3-1.1,0.5-1.7,0.8l0,17.5
			c0.4-0.4,0.8-0.7,1.2-1.1c0.2-1.1,0.4-2.2,0.6-3.2c1,1.7,2.3,1.8,3.7,0.6c2.7-2.2,4.7-7.3,4.8-12.9c0.1-5.9-1.4-7.9-4.3-10.8
			C11.6,20.6,10,19.3,10,16.2z"/>
		<path class="st0" d="M25.6,8h-5.3c0,0.9,0,1.9,0,2.8c1-0.1,1.3,0.4,1.3,1.9c0,6,0,12.5-0.1,18.4c0,1.4-0.3,2.1-1.3,2.6
			c0,0.9,0,1.8,0,2.7c1.9-1,3.8-2,5.7-2.9c0-0.8,0-1.7,0-2.5c0,0-0.1,0-0.1,0c-1,0.4-1.3,0.1-1.3-1.3c0-2.4,0.1-4.8,0.1-7.1
			c0.6-0.1,1-0.2,1.1-0.3c3.6-1,5.2-3.1,5.4-7.6C31.3,10.1,29.6,7.9,25.6,8z M28.1,15c-0.1,3.1-0.7,4.4-2.6,4.9
			c-0.3,0.1-0.5,0.1-0.8,0.2c0-3,0.1-6.4,0.1-9.5c0,0,0.6-0.1,0.9-0.1C27.6,10.5,28.2,11.6,28.1,15z"/>
		<path class="st0" d="M38.1,7.8c-1.8,0-3.1,0.9-3.9,2.6c-0.9,1.8-1.2,4.8-1.2,9.2c0,4.4,0.2,7.3,1,8.7c0.8,1.3,2.1,1.6,3.8,1
			c1.7-0.6,3.1-1.8,4-3.5c0.9-1.7,1.2-4.3,1.3-8.1c0.1-3.8-0.1-6.4-1-7.8C41.1,8.5,39.8,7.8,38.1,7.8z M39.6,18.3
			c-0.1,5.6-0.2,8.1-1.9,8.7c-1.7,0.5-1.7-2.1-1.6-8c0.1-5.9,0.2-8.6,1.9-8.7C39.7,10.2,39.7,12.7,39.6,18.3z"/>
		<path class="st0" d="M56.4,20.5c0,0.4,0,0.8,0,1.1c0,0.6-0.3,1-0.7,1.1c-0.7,0.1-0.7-0.8-0.8-2.5c-0.2-2.4-0.7-3.6-2.7-3.8
			c2.2-0.6,3.5-1.9,3.4-4.3c0-3-1.8-4.3-5.6-4.2h-5.7l0,1.9c1-0.1,1.3,0.3,1.3,1.3c0,4.1-0.1,8-0.1,12.1c0,1-0.4,1.4-1.4,1.7
			c0,0.6,0,1.2,0,1.9c2-0.6,4.1-1.1,6.1-1.6c0-0.6,0-1.2,0-1.7c0,0-0.1,0-0.1,0c-1,0.2-1.4,0-1.4-1c0-1.7,0-3.4,0-5.1
			c0.2-0.1,0.4-0.1,0.5-0.1c1.8-0.2,2.3,0.5,2.4,2.4c0.1,1.8-0.1,3.3,0.6,4.3c0.5,0.7,1.2,0.9,2.4,0.7c2-0.4,2.8-1.5,2.8-3.7
			c0-0.2,0-0.5,0-0.7C57.2,20.4,56.8,20.5,56.4,20.5z M49.7,15.5c-0.3,0-0.6,0.1-0.9,0.1c0-2,0-3.7,0-5.7c0.3,0,0.6,0,0.9,0
			c2-0.1,2.7,0.5,2.7,2.7C52.5,14.6,51.8,15.2,49.7,15.5z"/>
		<path class="st0" d="M57.7,13.8c0.5,0,1-0.1,1.5-0.1c0-0.6,0-1.2,0-1.8c0-2,0.6-2.4,2-2.4c0.2,0,0.4,0,0.5,0c0,3.9,0,7.4,0,11.3
			c0,0.9-0.4,1.2-1.5,1.3c-0.1,0-0.2,0-0.3,0c0,0.5,0,1.1,0,1.6c2.3-0.3,4.7-0.6,7.1-0.7c0-0.5,0-1,0-1.5c-0.1,0-0.2,0-0.3,0
			c-1.1,0.1-1.6-0.2-1.6-1c-0.1-3.8-0.1-7.1-0.2-11c0.2,0,0.4,0,0.5,0c1.4,0,1.9,0.8,1.9,2.6c0,0.6,0,0.7,0,1.3c0.5,0,1,0,1.5,0V8
			H57.7V13.8z"/>
		<path class="st0" d="M76.8,13.8c-2.2-1.3-3.6-1.9-3.6-3.1c0-0.9,0.8-1.5,1.9-1.5c1.9,0,3.2,1.4,3.5,4c0.5,0,1,0,1.5,0
			c0-1.8-0.1-3.5-0.1-5.3c-0.4,0-0.9,0-1.3,0c-0.2,0.3-0.3,0.6-0.5,0.9c-0.9-0.8-2.1-1.2-3.5-1.2c-2.3,0-4.3,1.7-4.3,3.9
			c0,1.2,0.5,2.2,1.6,3.1c0.8,0.7,2.2,1.4,3.9,2.4c1.4,0.9,2.1,1.8,2.1,2.7c0,1-0.8,1.6-2.1,1.6c-2.2,0-3.6-1.7-3.9-4.9
			c-0.5,0-1.1,0-1.6,0c0,2.1-0.1,4.1-0.1,6.2c0.4,0,0.9,0,1.3,0c0.2-0.3,0.5-0.7,0.7-1c1,0.9,2.3,1.3,3.9,1.3c2.8,0,4.7-1.5,4.6-4
			C81,16.6,79.5,15.3,76.8,13.8z"/>
		<path class="st0" d="M96.3,21.9V10.7c0-0.9,0.4-0.9,1.3-0.9c0-0.6,0-1.2,0-1.7c0,0-3.8,0-5.7,0c-0.7,3.6-1.4,6.8-2.1,10.2
			c-0.7-3.6-1.7-6.7-2.4-10.2H82l0,1.5c1,0,1.4,0.2,1.3,1.1c0,3.4,0.1,6.2,0,9.6c0,0.8-0.3,1.2-1.4,1.2l0,1.5
			c1.6,0.1,3.2,0.3,4.8,0.4l0-1.6c-1.1-0.1-1.6-0.6-1.6-1.5c0-3.8,0-6.9,0-10.7c0.9,4.7,2.2,9,3.2,13.9c0.6,0.1,1.2,0.2,1.9,0.2
			c1-4.7,2.1-9.1,3.1-14.1v11.6c0,0.8-0.3,1.2-1.3,1.1c0,0.5,0,1.1,0,1.6c1.9,0.3,3.9,0.7,5.8,1.1l0-1.7
			C96.9,23.2,96.3,22.8,96.3,21.9z"/>
		<path class="st0" d="M110.1,23.4C108.9,18,107.8,13,106.6,8h-3.4c-0.9,5-1.7,9.5-2.6,14.1c-0.2,1.2-0.2,1.7-1.5,1.5l0,1.7
			c1.6,0.3,3.2,0.7,4.8,1.1l0-1.8c-0.1,0-0.3-0.1-0.4-0.1c-0.7-0.2-1-0.5-1.1-1.1c0-0.2,0-0.5,0.1-0.8c0.1-0.7,0.2-1.5,0.3-2.2
			c1.2,0.2,2.3,0.4,3.5,0.7c0.2,0.8,0.3,1.7,0.5,2.6c0.1,0.4,0.1,0.6,0.1,0.8c0,0.7-0.3,0.8-1.2,0.6l0,1.9c2,0.6,4.1,1.2,6.1,1.9
			l0-2c-0.1,0-0.1,0-0.2,0C110.7,26.5,110.5,25.5,110.1,23.4z M103.3,18.7c0.4-2.5,0.8-5,1.1-7.6c0.6,2.6,1.1,5.3,1.7,8
			C105.1,19,104.2,18.8,103.3,18.7z"/>
		<path class="st0" d="M120.2,10.1c0.9,0.1,1.3,1,1.3,2.2c0.1,4.4,0.2,9,0.3,13.4c-1.4-6.2-2.8-12.1-4.3-17.7h-5.2l0,2.1
			c1,0.1,1.5,0.5,1.5,1.6c0.2,4.8,0.3,9.5,0.5,14.3c0,1.2-0.3,1.5-1.3,1.1c0,0.7,0,1.4,0.1,2.1c1.5,0.5,3,1.1,4.5,1.7
			c0-0.8,0-1.5-0.1-2.3c-0.9-0.4-1.2-0.9-1.3-2.1c-0.1-4.5-0.3-9.1-0.4-13.6c1.6,6,3.2,12.4,4.8,19.2c1.1,0.5,2.2,1,3.3,1.5
			c-0.1-7-0.2-14.3-0.4-21.3c0-1.4,0.3-1.8,1.3-1.7V8h-4.6V10.1z"/>
		<path class="st0" d="M127.5,7.8c-1,0-1.6,1-1.6,2.6c0,1.5,0.6,2.4,1.6,2.5c0.1,0,0.3,0,0.4,0c-0.3,1.5-0.9,2.7-1.9,3.6
			c0.3,0.6,0.5,1.2,0.8,1.8c1.7-1.4,2.6-4,2.6-6.6C129.4,9.2,128.6,7.8,127.5,7.8z"/>
		<path class="st0" d="M133.2,15.3c-0.1-2,0.7-3.4,2-3.4c2.2,0.1,3.7,3.8,4.2,11c0.6,0.1,1.1,0.3,1.7,0.4V8.7l-1.5,0
			c-0.2,0.8-0.4,1.7-0.6,2.4C137.9,9,136.3,8,134.7,8c-2.8,0.1-4.8,3.8-4.5,8.9c0.1,2.7,0.9,5,2.2,7.7c0.9,1.9,2.6,4.1,4.4,7.6
			c1.5,3,2.3,5.7,2.3,8.2c0,2.7-1.4,4-2.7,3.1c-2.1-1.5-3.1-6.6-3.7-14.4c-0.6-0.2-1.2-0.4-1.8-0.7V43c0.4,0.3,0.9,0.6,1.3,0.9
			c0.2-0.6,0.4-1.3,0.6-1.9c1.1,2.8,2.4,4.9,3.9,6.1c2.6,2.2,5.1-1,5.1-8.2c0-7.4-1.5-11.4-4.5-16.1
			C134.9,19.7,133.3,18.1,133.2,15.3z"/>
		<path class="st0" d="M144.7,9.4c-1.2,0-2.2,1-2.2,2.2c0,1.2,1,2.2,2.2,2.2c1.2,0,2.2-1,2.2-2.2C146.9,10.4,145.9,9.4,144.7,9.4z
			 M144.7,13.4c-1,0-1.8-0.8-1.8-1.8c0-1,0.8-1.8,1.8-1.8c1,0,1.8,0.8,1.8,1.8C146.5,12.6,145.7,13.4,144.7,13.4z"/>
		<path class="st0" d="M145.7,11.1c0-0.5-0.3-0.7-0.9-0.7h-1v2.5h0.4v-1.1h0.4l0.7,1.1h0.4l-0.7-1.1
			C145.4,11.7,145.7,11.5,145.7,11.1z M144.2,11.4v-0.8h0.5c0.3,0,0.6,0,0.6,0.4c0,0.4-0.3,0.4-0.7,0.4H144.2z"/>
	</g>
	<path class="st0" d="M34.5,57.1c1.4-0.7,3.1-1.4,4.1-2.5c2.2-1.4,4.3-2.4,6.6-3.9c1.4-0.9,1.6-2.7,3.9-2.8c0.1,0.1,0.2,0.1,0.3,0.2
		l-0.7,0.3c0,0.3,0,0.5,0,0.8c0,1-0.8,1.1-1.5,2v0.5c0.8,0,1.3,0.1,1.7,0.3c-0.2,0.1-1.4,0.5-1.4,0.8c0,0-0.9,1-1.4,1.8
		c-0.1,0.1-0.2,0.1-0.2,0.2c-0.1,0.1,0.1,0.2,0.1,0.1c0.2-0.2,0.4-0.3,0.6-0.5c0.3-0.2,0.6-0.4,1-0.5c0.3-0.2,0.7-0.3,1.2-0.4
		c0,0,0.1,0,0.1,0l0.1,0c1.3-0.3,2.9-0.6,3.9-1.1c0.3-0.3,0.6-0.4,1-0.6c1.5-0.4,1.2-0.8,1.7-1.9c0.8-0.7,1.7-0.8,2.5-1.5
		c0.6-0.5,0.9-1.1,1.6-1.6l0.7-0.1c0.5-0.5,1.2-1.1,1.9-1.1c0.1,0,0.2-0.2,0.1-0.2c0,0,0,0,0,0c0-0.1,0.1-0.2,0.1-0.2
		c0.1,0,0.3-0.1,0.6-0.3c0.4-0.1,0.7-0.3,1.1-0.4c0.4-0.7,0.2-0.4,0.7-1c0.4-0.4,0.7-0.8,0.9-1.3c0.4-0.2,0.7-0.2,1.2-0.3
		c0.3-0.2,0.6-0.3,0.9-0.5c0.2,0,0.4,0,0.5,0l-0.5,0.6c0,0,0.9,0.7,0,1.3c-0.2,0-0.4,0.1-0.6,0.1c-0.2,0-0.1,0.2,0,0.2
		c2-0.2,3.2-1.1,4.2-2c0.6-1,1.3-1.8,2.7-2c0.7,1.6-0.7,2.2-1.5,3.4c1,0.1,1.7,0.2,2.6,0.4l-0.5,0.3c0.9,0.3,1.9,0.2,2.3,0.9
		c-1.4,1-4.1,1-5.2,2.2h4.2c2,0.2,3.5,0.6,4.4,1.6c-0.8,0.2-1.6,0.3-2.1,0.7c0.7,0.3,2.7,0.2,2.7,0.9c0,0.4-0.9,0.8-1.2,1
		C79,52.2,81,51.9,84.5,52c3.1-0.3,5.7,1.4,6.8,1.7c0,0,0,0,0-0.1c0.6,0.2,1.1,0.3,1.7,0.6c0.2,0.1,0.3-0.2,0.1-0.2
		c-0.7-0.2-0.9-0.5-1.6-0.8c-0.8-1.2-0.6-1.2-1.9-1.9c-1.3-0.7-3.5-0.7-4.5-1.8c-0.4-0.4-0.7-0.8-1-1.3c0.4-0.1,1.1-0.3,1.3-0.5
		c0.3-0.3,0.6-0.5,1.1-0.7c0.5-0.1,0.8-0.3,1.2-0.4c0.5-0.3,0.7-0.6,1.1-1l0.4-0.1c0.3-0.4,0.6-0.7,0.9-1.1c1-0.2,1.4-0.2,1.8,0
		c0,0.1-0.1,0.4,0,0.5c0.9,1.8-0.3,2-0.5,2.6c1.1,0.1,2.4,0.4,3,0.7L93.3,49c0,0,0.2,0.3,0.6,0.3c1.8,0.3,2.3-0.1,3.6,0
		c1.4,0.1,2.3,0.3,3.1,0.8v0.5c-0.7,0.2-1.3,0.3-1.9,0.7l0.8,0.2c-0.9,0.7-1.8,0.8-2.6,1.4c2.7,1.1,5.5,0.5,7,2.7
		c4,2.9,8.8,2.5,8.8,2.5c0.1,0,0.4-0.1,0.6-0.1l2.6-0.9c-0.2,0-0.4-0.1-0.7-0.1c-0.5-0.1-0.8-0.4-1.1-1c-0.2-0.4-0.5-0.8-0.9-1.2
		c-1.2-0.9-2.7-1.1-4.4-1.3c-0.3,0-0.7-0.1-1.1-0.1l-0.8-0.7c-1.3-1.6-2.5-3-4.7-3.6c-0.4-0.2-0.8-0.6-1.2-1
		c-0.4-0.4-0.8-0.8-1.3-1.1c-0.4-0.2-0.7-0.2-1-0.2c-0.2,0-0.3,0-0.5,0c-0.2,0-0.3,0-0.5,0s-0.3,0-0.4,0c-0.3,0-0.8-0.3-1.3-0.6
		c-0.6-0.4-1.2-0.7-1.8-0.9c-0.1,0-0.3-0.1-0.4-0.1c0,0,0-0.2-0.1-0.3c0-0.1-0.1-0.2-0.1-0.3l-0.1-0.2l-0.2-0.1l-0.1-0.1
		c-0.8-0.5-1.2-0.8-2-0.8c-0.4,0-0.8,0.1-1.5,0.2l-0.2,0l-0.1,0.1c-0.1,0.2-0.3,0.3-0.4,0.4c-0.2,0.2-0.3,0.3-0.5,0.5l-0.3,0.1
		l-0.1,0L88.3,45c-0.3,0.3-0.6,0.6-0.9,0.8c-0.1,0-0.2,0.1-0.3,0.1c-0.3,0.1-0.5,0.2-0.8,0.3l0,0l0,0c-0.4,0.2-0.8,0.4-1.2,0.7
		c-0.1,0-0.2,0.1-0.3,0.1c-0.1,0.1-0.2,0.1-0.4,0.2h-0.1c-0.2-0.4-0.4-0.7-0.7-1.1c-0.9-1.5-1.9-3.1-3.5-4.2L80.1,42L80,42
		c-0.5-0.1-0.8-0.2-1.4-0.3c-0.7-0.3-1.1-0.7-1.4-1.2c-0.3-0.4-0.7-0.8-1.2-1.2l0,0l0,0l-0.5-0.3l-0.1,0l-0.1,0L74.8,39l-0.1,0
		l-0.1,0c-1.5,0.2-2.6,0.9-3.5,2.1c-0.1,0.1-0.2,0.2-0.3,0.3c-0.1,0.1-0.1,0.1-0.2,0.2c-0.2-0.1-0.3-0.3-0.5-0.4
		c-0.1-0.1-0.2-0.2-0.3-0.3l-0.2-0.1l-0.2,0c-0.1,0-0.2,0-0.2,0c-0.2,0-0.4,0-0.6,0c-0.1,0-0.2,0-0.4,0l-0.1,0l-0.1,0l-0.2,0.1
		c-0.3,0.1-0.5,0.2-0.8,0.3c-0.5,0.1-0.8,0.2-1.3,0.4l-0.2,0.1l-0.1,0.2c-0.3,0.5-0.5,0.8-0.9,1.2l0,0l0,0c-0.1,0.2-0.2,0.2-0.3,0.3
		c-0.2,0.2-0.2,0.2-0.3,0.5l0,0c-0.2,0.1-0.3,0.1-0.5,0.2c-0.1,0-0.2,0.1-0.3,0.1l-0.1,0l-0.1,0c-0.4,0.2-0.6,0.5-0.7,0.8
		c-0.8,0-1.4,0.3-2,0.9L59.7,46l-0.1,0l-0.1,0.1c-0.4,0.3-0.6,0.6-0.9,0.9c-0.3,0.3-0.5,0.5-0.8,0.8c-0.4,0.4-0.8,0.6-1.2,0.8
		c-0.4,0.2-0.9,0.4-1.4,0.8L55,49.4L55,49.5c-0.1,0.3-0.2,0.6-0.3,0.8c0,0.1-0.1,0.2-0.1,0.2c-0.1-0.1-0.2-0.1-0.3-0.2l-0.1-0.1
		l-0.1-0.1c-0.7-0.4-1.3-0.9-2-1.4c-0.8-0.6-1.6-1.2-2.7-1.7L49.4,47l-0.2,0c-1.8,0.1-2.6,1-3.4,1.9c-0.4,0.4-0.7,0.8-1.1,1
		c-1.1,0.7-2.2,1.3-3.3,1.9c-1.1,0.6-2.2,1.2-3.3,2l-0.1,0l0,0.1c-0.7,0.8-2,1.4-3.2,2c-0.2,0.1-0.5,0.2-0.7,0.3
		c-0.4,0.2-0.8,0.4-1.1,0.6c-0.1,0.1-0.2,0.1-0.3,0.2l1.2,0.4C34,57.4,34.3,57.2,34.5,57.1z"/>
	<g>
		<path class="st0" d="M5.7,21.3c-2.8,3.4-4.3,7-4.3,10.7c0,4.1,1.8,8,5.1,11.6l0-8.8c-0.2-1-0.3-1.9-0.3-2.9c0-1.7,0.4-3.4,1-5.1
			C6.4,25.2,5.9,23.4,5.7,21.3z"/>
		<path class="st0" d="M31.4,9.1c0.8-0.3,1.6-0.5,2.4-0.8c1.1-1.2,2.5-1.9,4.2-1.9l0.2,0c0.6,0,1.1,0.1,1.6,0.2
			C50.1,3.9,62.1,2.4,75,2.4c12.9,0,24.9,1.5,35.2,4.1h8.8c-12.3-4-27.5-6.3-44.1-6.3c-17.3,0-33.3,2.6-45.9,6.9
			c0.6,0.3,1.2,0.7,1.7,1.2C31,8.5,31.2,8.8,31.4,9.1z"/>
		<path class="st0" d="M148.6,32c0-4.5-2.2-8.8-6.1-12.7V26c0.9,1.9,1.4,3.9,1.4,5.9c0,1.4-0.2,2.8-0.7,4.2c0.1,1.2,0.1,2.4,0.1,3.8
			c0,1.6-0.1,3.1-0.4,4.4C146.6,40.4,148.6,36.3,148.6,32z"/>
		<path class="st0" d="M134,47.1c-5.2,3.7-12.2,6.8-20.6,9.2c-0.2,0-0.3,0.1-0.5,0.1c-0.6,0.2-1.1,0.3-1.7,0.5
			c-0.5,0.1-0.9,0.2-1.4,0.4c-0.1,0-0.2,0-0.3,0.1c-10.1,2.5-21.9,4-34.5,4c-13.3,0-25.7-1.6-36.3-4.4c-0.4-0.1-0.7-0.2-1.1-0.3
			c-0.4-0.1-0.8-0.2-1.1-0.3c-8.5-2.5-15.7-5.7-20.9-9.5c-0.4,0.4-0.8,0.8-1.2,1.2c-0.6,0.4-1.2,0.7-1.7,0.9
			c13,8.9,36.1,14.8,62.3,14.8c25.6,0,48.2-5.6,61.4-14.2c-0.2-0.1-0.4-0.2-0.6-0.4C135.2,48.6,134.6,48,134,47.1z"/>
	</g>
</g>
<g>
</g>
<g>
</g>
<g>
</g>
<g>
</g>
<g>
</g>
<g>
</g>
</svg>
